<?xml version="1.0" standalone="no"?>
<!DOCTYPE svg PUBLIC "-//W3C//DTD SVG 20010904//EN"
 "http://www.w3.org/TR/2001/REC-SVG-20010904/DTD/svg10.dtd">
<svg version="1.0" xmlns="http://www.w3.org/2000/svg"
 width="272.000000pt" height="110.000000pt" viewBox="0 0 272.000000 110.000000"
 preserveAspectRatio="xMidYMid meet">

<g transform="translate(0.000000,110.000000) scale(0.100000,-0.100000)"
fill="#000000" stroke="none">
<path d="M304 1068 c9 -47 -9 -158 -34 -211 -11 -23 -47 -78 -81 -122 -104
-137 -114 -159 -113 -246 2 -126 63 -218 177 -267 40 -17 40 -16 3 32 -38 50
-53 120 -37 174 5 17 30 60 56 93 69 90 89 135 93 206 3 35 7 63 11 63 12 0
128 -125 158 -170 49 -76 82 -170 84 -240 l1 -35 13 30 c51 114 8 322 -97 472
-56 79 -140 174 -195 219 l-46 38 7 -36z"/>
<path d="M900 855 l0 -235 90 0 89 0 3 83 3 82 58 3 57 3 0 -86 0 -85 95 0 95
0 0 235 0 235 -95 0 -95 0 0 -80 0 -80 -60 0 -60 0 0 80 0 80 -90 0 -90 0 0
-235z"/>
<path d="M1536 966 c-63 -19 -93 -48 -111 -110 -32 -107 19 -210 116 -236 68
-19 188 -8 234 20 57 35 75 73 75 155 0 88 -22 128 -86 156 -58 26 -164 33
-228 15z m115 -96 c16 -9 19 -22 19 -73 0 -36 -5 -68 -12 -75 -17 -17 -45 -15
-52 4 -11 28 -6 130 6 142 15 15 15 15 39 2z"/>
<path d="M2110 969 c-14 -6 -35 -20 -47 -31 l-23 -21 0 26 0 27 -80 0 -80 0 0
-250 0 -250 85 0 85 0 0 90 c0 50 3 90 6 90 3 0 17 -9 31 -20 35 -27 114 -27
158 0 33 20 64 79 66 123 0 16 5 11 15 -18 39 -106 143 -144 328 -119 l46 7 0
49 c0 45 -1 48 -19 38 -11 -5 -51 -10 -89 -10 -54 0 -72 4 -85 18 -10 10 -17
22 -17 25 0 4 52 7 115 7 l115 0 0 50 c0 140 -98 204 -260 169 -68 -14 -116
-57 -133 -117 l-14 -46 -6 40 c-16 99 -110 158 -197 123z m454 -91 c27 -38 20
-48 -29 -48 -50 0 -59 17 -28 52 21 24 39 23 57 -4z m-436 -43 c16 -36 15 -76
-4 -103 -32 -46 -74 -15 -74 57 0 26 5 52 12 59 21 21 54 14 66 -13z"/>
<path d="M398 621 c-4 -38 -15 -65 -44 -107 -21 -31 -47 -68 -56 -83 -22 -32
-23 -102 -3 -144 18 -38 72 -77 105 -77 l24 0 -27 27 c-14 16 -31 49 -38 74
-12 46 -11 49 29 133 45 92 54 158 28 205 -13 23 -13 21 -18 -28z"/>
<path d="M1079 486 c-129 -29 -199 -112 -199 -235 0 -110 71 -204 174 -232 43
-12 258 -8 289 6 15 6 17 22 17 116 l0 109 -80 0 -80 0 0 -66 0 -67 -41 6
c-49 6 -74 28 -90 74 -23 70 17 150 88 174 34 11 110 8 161 -7 21 -6 22 -4 22
54 0 57 -1 60 -28 65 -69 14 -180 15 -233 3z"/>
<path d="M1453 363 c-20 -4 -23 -11 -23 -53 0 -49 0 -49 26 -40 44 17 150 12
170 -7 17 -17 14 -18 -62 -24 -125 -9 -174 -47 -174 -133 0 -37 5 -48 32 -71
29 -25 38 -27 99 -23 48 2 74 9 88 22 21 19 21 19 21 -2 0 -21 5 -22 80 -22
l80 0 0 134 c0 132 -1 135 -27 167 -40 48 -78 59 -190 58 -54 -1 -108 -4 -120
-6z m187 -207 c0 -25 -41 -67 -63 -64 -33 5 -44 33 -23 57 22 24 86 30 86 7z"/>
<path d="M1890 359 c-89 -36 -105 -142 -28 -189 17 -10 56 -22 85 -26 60 -7
75 -20 48 -41 -25 -17 -72 -17 -125 2 -23 8 -44 15 -46 15 -2 0 -4 -22 -4 -49
0 -48 0 -48 38 -55 49 -8 161 -8 202 0 17 4 47 21 66 39 29 27 34 39 34 77 0
56 -25 82 -95 98 -86 20 -99 25 -94 35 2 6 41 10 87 10 l82 -1 0 42 c0 35 -4
43 -22 48 -36 9 -201 6 -228 -5z"/>
<path d="M10 145 c0 -8 91 -51 145 -68 115 -38 305 -38 420 0 54 17 145 60
145 68 0 3 -160 5 -355 5 -195 0 -355 -2 -355 -5z"/>
</g>
</svg>
